<svg width="20" height="20" viewBox="0 0 20 20" fill="none" xmlns="http://www.w3.org/2000/svg">
<path d="M8.51 1.665C8.69758 1.4555 8.92724 1.28791 9.18399 1.17317C9.44073 1.05843 9.71878 0.99913 10 0.99913C10.2812 0.99913 10.5593 1.05843 10.816 1.17317C11.0727 1.28791 11.3024 1.4555 11.49 1.665L12.19 2.447C12.3901 2.6705 12.6378 2.84613 12.915 2.9609C13.1921 3.07566 13.4915 3.12662 13.791 3.11L14.841 3.052C15.1218 3.03652 15.4028 3.08045 15.6655 3.18092C15.9282 3.2814 16.1668 3.43616 16.3656 3.63509C16.5645 3.83403 16.7191 4.07267 16.8195 4.33543C16.9198 4.59819 16.9636 4.87916 16.948 5.16L16.89 6.209C16.8735 6.50833 16.9246 6.80754 17.0393 7.08449C17.1541 7.36144 17.3296 7.60905 17.553 7.809L18.335 8.509C18.5447 8.69659 18.7124 8.92631 18.8272 9.18315C18.9421 9.43999 19.0014 9.71816 19.0014 9.9995C19.0014 10.2808 18.9421 10.559 18.8272 10.8159C18.7124 11.0727 18.5447 11.3024 18.335 11.49L17.553 12.19C17.3295 12.3901 17.1539 12.6378 17.0391 12.915C16.9243 13.1921 16.8734 13.4915 16.89 13.791L16.948 14.841C16.9635 15.1218 16.9195 15.4028 16.8191 15.6655C16.7186 15.9282 16.5638 16.1668 16.3649 16.3656C16.166 16.5645 15.9273 16.7191 15.6646 16.8195C15.4018 16.9198 15.1208 16.9636 14.84 16.948L13.791 16.89C13.4917 16.8735 13.1925 16.9246 12.9155 17.0393C12.6386 17.1541 12.3909 17.3296 12.191 17.553L11.491 18.335C11.3034 18.5447 11.0737 18.7124 10.8168 18.8272C10.56 18.9421 10.2818 19.0014 10.0005 19.0014C9.71915 19.0014 9.44098 18.9421 9.18414 18.8272C8.92731 18.7124 8.69759 18.5447 8.51 18.335L7.81 17.553C7.60993 17.3295 7.36216 17.1539 7.08503 17.0391C6.80789 16.9243 6.50849 16.8734 6.20899 16.89L5.159 16.948C4.87815 16.9635 4.5972 16.9196 4.33448 16.8191C4.07177 16.7186 3.8332 16.5638 3.63436 16.3649C3.43552 16.166 3.28088 15.9273 3.18053 15.6646C3.08018 15.4018 3.03638 15.1208 3.052 14.84L3.11 13.791C3.12646 13.4917 3.07543 13.1925 2.96067 12.9155C2.84591 12.6386 2.67036 12.391 2.447 12.191L1.665 11.491C1.45533 11.3034 1.2876 11.0737 1.17276 10.8169C1.05792 10.56 0.998566 10.2818 0.998566 10.0005C0.998566 9.71916 1.05792 9.44099 1.17276 9.18415C1.2876 8.92731 1.45533 8.6976 1.665 8.51L2.447 7.81C2.67049 7.60994 2.84612 7.36217 2.96089 7.08503C3.07566 6.8079 3.12662 6.5085 3.11 6.209L3.052 5.159C3.03666 4.87824 3.0807 4.5974 3.18124 4.3348C3.28178 4.07221 3.43656 3.83377 3.63548 3.63504C3.8344 3.4363 4.07299 3.28175 4.33567 3.18146C4.59836 3.08117 4.87925 3.0374 5.16 3.053L6.20899 3.111C6.50833 3.12747 6.80753 3.07644 7.08448 2.96168C7.36143 2.84691 7.60904 2.67136 7.809 2.448L8.51 1.665Z" stroke="#EB2743" stroke-width="1.5"/>
<path d="M7.5 7.5H7.51V7.51H7.5V7.5ZM12.5 12.5H12.51V12.51H12.5V12.5Z" stroke="#EB2743" stroke-width="1.5" stroke-linejoin="round"/>
<path d="M13 7L7 13" stroke="#EB2743" stroke-width="1.5" stroke-linecap="round" stroke-linejoin="round"/>
</svg>
