<svg width="1439" height="618" viewBox="0 0 1439 618" fill="none" xmlns="http://www.w3.org/2000/svg">
<path d="M762.405 305.297C762.405 431.999 865.119 534.71 991.824 534.71C1118.53 534.71 1221.24 431.999 1221.24 305.297C1221.24 178.592 1118.53 75.8813 991.824 75.8813C865.119 75.8813 762.405 178.592 762.405 305.297Z" fill="#1D6F71"/>
<path d="M1329.72 37.2845C1329.72 38.9798 1331.1 40.3586 1332.79 40.3586C1334.49 40.3586 1335.86 38.9798 1335.86 37.2845C1335.86 35.5892 1334.49 34.2198 1332.79 34.2198C1331.1 34.2198 1329.72 35.5892 1329.72 37.2845Z" fill="#007678"/>
<path d="M1203.31 7.09199C1203.31 8.78728 1204.69 10.166 1206.39 10.166C1208.08 10.166 1209.46 8.78728 1209.46 7.09199C1209.46 5.3967 1208.08 4.02102 1206.39 4.02102C1204.69 4.02102 1203.31 5.3967 1203.31 7.09199Z" fill="#007678"/>
<path d="M1114.26 104.328C1114.26 106.024 1115.64 107.399 1117.34 107.399C1119.03 107.399 1120.4 106.024 1120.4 104.328C1120.4 102.633 1119.03 101.261 1117.34 101.261C1115.64 101.261 1114.26 102.633 1114.26 104.328Z" fill="#007678"/>
<path d="M1209.97 98.189C1209.97 99.8843 1211.34 101.26 1213.04 101.26C1214.73 101.26 1216.11 99.8843 1216.11 98.189C1216.11 96.4937 1214.73 95.1149 1213.04 95.1149C1211.34 95.1149 1209.97 96.4937 1209.97 98.189Z" fill="#007678"/>
<path d="M1022.66 40.3585C1022.66 42.0538 1024.03 43.4294 1025.72 43.4294C1027.42 43.4294 1028.8 42.0538 1028.8 40.3585C1028.8 38.6632 1027.42 37.2844 1025.72 37.2844C1024.03 37.2844 1022.66 38.6632 1022.66 40.3585Z" fill="#007678"/>
<path d="M963.804 147.316C963.804 149.011 965.177 150.39 966.872 150.39C968.567 150.39 969.946 149.011 969.946 147.316C969.946 145.62 968.567 144.251 966.872 144.251C965.177 144.251 963.804 145.62 963.804 147.316Z" fill="#007678"/>
<path d="M1114.26 37.2845C1114.26 38.9798 1115.64 40.3586 1117.34 40.3586C1119.03 40.3586 1120.4 38.9798 1120.4 37.2845C1120.4 35.5892 1119.03 34.2198 1117.34 34.2198C1115.64 34.2198 1114.26 35.5892 1114.26 37.2845Z" fill="#007678"/>
<path d="M1314.88 104.328C1314.88 106.024 1316.25 107.399 1317.95 107.399C1319.65 107.399 1321.02 106.024 1321.02 104.328C1321.02 102.633 1319.65 101.261 1317.95 101.261C1316.25 101.261 1314.88 102.633 1314.88 104.328Z" fill="#007678"/>
<path d="M1394.72 59.8091C1394.72 61.5044 1396.09 62.8738 1397.79 62.8738C1399.48 62.8738 1400.86 61.5044 1400.86 59.8091C1400.86 58.1075 1399.48 56.735 1397.79 56.735C1396.09 56.735 1394.72 58.1075 1394.72 59.8091Z" fill="#007678"/>
<path d="M1266.42 57.3237C1266.42 58.693 1267.53 59.8086 1268.9 59.8086C1270.27 59.8086 1271.38 58.693 1271.38 57.3237C1271.38 55.9511 1270.27 54.8449 1268.9 54.8449C1267.53 54.8449 1266.42 55.9511 1266.42 57.3237Z" fill="#007678"/>
<path d="M1176.46 150.389C1176.46 151.019 1176.97 151.527 1177.6 151.527C1178.22 151.527 1178.74 151.019 1178.74 150.389C1178.74 149.759 1178.22 149.252 1177.6 149.252C1176.97 149.252 1176.46 149.759 1176.46 150.389Z" fill="#007678"/>
<path d="M1158.16 88.7195C1158.16 89.3494 1158.67 89.8601 1159.3 89.8601C1159.93 89.8601 1160.44 89.3494 1160.44 88.7195C1160.44 88.0896 1159.93 87.582 1159.3 87.582C1158.67 87.582 1158.16 88.0896 1158.16 88.7195Z" fill="#007678"/>
<path d="M1070.39 136.826C1070.39 137.456 1070.9 137.964 1071.53 137.964C1072.16 137.964 1072.67 137.456 1072.67 136.826C1072.67 136.203 1072.16 135.689 1071.53 135.689C1070.9 135.689 1070.39 136.203 1070.39 136.826Z" fill="#007678"/>
<path d="M1297.37 48.8031C1297.37 49.4267 1297.88 49.9407 1298.5 49.9407C1299.13 49.9407 1299.64 49.4267 1299.64 48.8031C1299.64 48.1733 1299.13 47.6657 1298.5 47.6657C1297.88 47.6657 1297.37 48.1733 1297.37 48.8031Z" fill="#007678"/>
<path d="M882.06 71.3217C882.06 72.5751 883.078 73.5967 884.335 73.5967C885.591 73.5967 886.613 72.5751 886.613 71.3217C886.613 70.0651 885.591 69.0435 884.335 69.0435C883.078 69.0435 882.06 70.0651 882.06 71.3217Z" fill="#007678"/>
<path d="M959.912 73.5969C959.912 77.4418 963.033 80.5566 966.872 80.5566C970.717 80.5566 973.834 77.4418 973.834 73.5969C973.834 69.755 970.717 66.6371 966.872 66.6371C963.033 66.6371 959.912 69.755 959.912 73.5969Z" fill="#007678"/>
<path d="M875.1 185.702C875.1 189.547 878.215 192.662 882.06 192.662C885.902 192.662 889.017 189.547 889.017 185.702C889.017 181.86 885.902 178.739 882.06 178.739C878.215 178.739 875.1 181.86 875.1 185.702Z" fill="#007678"/>
<path d="M1352.96 114.359C1352.96 118.2 1356.08 121.318 1359.92 121.318C1363.76 121.318 1366.88 118.2 1366.88 114.359C1366.88 110.514 1363.76 107.399 1359.92 107.399C1356.08 107.399 1352.96 110.514 1352.96 114.359Z" fill="#007678"/>
<path d="M1218.92 178.739C1218.92 181.026 1220.78 182.888 1223.07 182.888C1225.36 182.888 1227.21 181.026 1227.21 178.739C1227.21 176.454 1225.36 174.596 1223.07 174.596C1220.78 174.596 1218.92 176.454 1218.92 178.739Z" fill="#007678"/>
<path d="M1159.3 23.5868C1159.3 25.8775 1161.16 27.7295 1163.44 27.7295C1165.73 27.7295 1167.59 25.8775 1167.59 23.5868C1167.59 21.2993 1165.73 19.4442 1163.44 19.4442C1161.16 19.4442 1159.3 21.2993 1159.3 23.5868Z" fill="#007678"/>
<path d="M759.899 17.84C759.899 19.5353 761.275 20.9141 762.97 20.9141C764.665 20.9141 766.041 19.5353 766.041 17.84C766.041 16.1447 764.665 14.7691 762.97 14.7691C761.275 14.7691 759.899 16.1447 759.899 17.84Z" fill="#007678"/>
<path d="M544.443 84.8841C544.443 86.5794 545.816 87.9551 547.511 87.9551C549.21 87.9551 550.582 86.5794 550.582 84.8841C550.582 83.1888 549.21 81.81 547.511 81.81C545.816 81.81 544.443 83.1888 544.443 84.8841Z" fill="#007678"/>
<path d="M640.141 78.7451C640.141 80.4404 641.52 81.8098 643.212 81.8098C644.91 81.8098 646.283 80.4404 646.283 78.7451C646.283 77.0498 644.91 75.671 643.212 75.671C641.52 75.671 640.141 77.0498 640.141 78.7451Z" fill="#007678"/>
<path d="M452.832 20.9136C452.832 22.6089 454.207 23.9783 455.903 23.9783C457.598 23.9783 458.974 22.6089 458.974 20.9136C458.974 19.2183 457.598 17.8395 455.903 17.8395C454.207 17.8395 452.832 19.2183 452.832 20.9136Z" fill="#007678"/>
<path d="M393.979 127.871C393.979 129.566 395.349 130.945 397.047 130.945C398.749 130.945 400.121 129.566 400.121 127.871C400.121 126.176 398.749 124.8 397.047 124.8C395.349 124.8 393.979 126.176 393.979 127.871Z" fill="#007678"/>
<path d="M544.443 17.84C544.443 19.5353 545.816 20.9141 547.511 20.9141C549.21 20.9141 550.582 19.5353 550.582 17.84C550.582 16.1447 549.21 14.7691 547.511 14.7691C545.816 14.7691 544.443 16.1447 544.443 17.84Z" fill="#007678"/>
<path d="M745.058 84.8841C745.058 86.5794 746.434 87.9551 748.129 87.9551C749.824 87.9551 751.2 86.5794 751.2 84.8841C751.2 83.1888 749.824 81.81 748.129 81.81C746.434 81.81 745.058 83.1888 745.058 84.8841Z" fill="#007678"/>
<path d="M824.896 40.3585C824.896 42.0538 826.269 43.4294 827.964 43.4294C829.659 43.4294 831.035 42.0538 831.035 40.3585C831.035 38.6632 829.659 37.2844 827.964 37.2844C826.269 37.2844 824.896 38.6632 824.896 40.3585Z" fill="#007678"/>
<path d="M696.593 37.88C696.593 39.2494 697.706 40.3586 699.075 40.3586C700.445 40.3586 701.554 39.2494 701.554 37.88C701.554 36.5074 700.445 35.395 699.075 35.395C697.706 35.395 696.593 36.5074 696.593 37.88Z" fill="#007678"/>
<path d="M606.633 130.945C606.633 131.569 607.144 132.083 607.771 132.083C608.404 132.083 608.911 131.569 608.911 130.945C608.911 130.315 608.404 129.808 607.771 129.808C607.144 129.808 606.633 130.315 606.633 130.945Z" fill="#007678"/>
<path d="M588.339 69.2693C588.339 69.8992 588.85 70.4099 589.476 70.4099C590.103 70.4099 590.614 69.8992 590.614 69.2693C590.614 68.6457 590.103 68.138 589.476 68.138C588.85 68.138 588.339 68.6457 588.339 69.2693Z" fill="#007678"/>
<path d="M500.572 117.383C500.572 118.007 501.08 118.521 501.713 118.521C502.337 118.521 502.847 118.007 502.847 117.383C502.847 116.753 502.337 116.242 501.713 116.242C501.08 116.242 500.572 116.753 500.572 117.383Z" fill="#007678"/>
<path d="M727.544 29.3533C727.544 29.9831 728.052 30.4907 728.678 30.4907C729.311 30.4907 729.819 29.9831 729.819 29.3533C729.819 28.7297 729.311 28.2157 728.678 28.2157C728.052 28.2157 727.544 28.7297 727.544 29.3533Z" fill="#007678"/>
<path d="M312.235 51.8746C312.235 53.1312 313.254 54.1465 314.517 54.1465C315.77 54.1465 316.785 53.1312 316.785 51.8746C316.785 50.6149 315.77 49.5996 314.517 49.5996C313.254 49.5996 312.235 50.6149 312.235 51.8746Z" fill="#007678"/>
<path d="M390.09 54.1463C390.09 57.9912 393.205 61.1123 397.047 61.1123C400.895 61.1123 404.01 57.9912 404.01 54.1463C404.01 50.3076 400.895 47.1865 397.047 47.1865C393.205 47.1865 390.09 50.3076 390.09 54.1463Z" fill="#007678"/>
<path d="M305.275 166.251C305.275 170.096 308.393 173.217 312.235 173.217C316.08 173.217 319.198 170.096 319.198 166.251C319.198 162.409 316.08 159.294 312.235 159.294C308.393 159.294 305.275 162.409 305.275 166.251Z" fill="#007678"/>
<path d="M783.134 94.9143C783.134 98.7561 786.252 101.874 790.094 101.874C793.939 101.874 797.054 98.7561 797.054 94.9143C797.054 91.0693 793.939 87.9545 790.094 87.9545C786.252 87.9545 783.134 91.0693 783.134 94.9143Z" fill="#007678"/>
<path d="M649.103 159.295C649.103 161.582 650.955 163.438 653.246 163.438C655.53 163.438 657.389 161.582 657.389 159.295C657.389 157.004 655.53 155.149 653.246 155.149C650.955 155.149 649.103 157.004 649.103 159.295Z" fill="#007678"/>
<path d="M589.477 4.14251C589.477 6.43006 591.332 8.28516 593.619 8.28516C595.91 8.28516 597.762 6.43006 597.762 4.14251C597.762 1.85497 595.91 -0.000131607 593.619 -0.000131607C591.332 -0.000131607 589.477 1.85497 589.477 4.14251Z" fill="#007678"/>
<path d="M1174.31 238.529C1174.31 240.224 1175.68 241.6 1177.38 241.6C1179.07 241.6 1180.45 240.224 1180.45 238.529C1180.45 236.833 1179.07 235.455 1177.38 235.455C1175.68 235.455 1174.31 236.833 1174.31 238.529Z" fill="#007678"/>
<path d="M1047.9 208.336C1047.9 210.031 1049.27 211.404 1050.97 211.404C1052.66 211.404 1054.04 210.031 1054.04 208.336C1054.04 206.64 1052.66 205.265 1050.97 205.265C1049.27 205.265 1047.9 206.64 1047.9 208.336Z" fill="#007678"/>
<path d="M958.849 305.57C958.849 307.265 960.222 308.644 961.92 308.644C963.616 308.644 964.991 307.265 964.991 305.57C964.991 303.874 963.616 302.499 961.92 302.499C960.222 302.499 958.849 303.874 958.849 305.57Z" fill="#007678"/>
<path d="M1054.55 299.431C1054.55 301.126 1055.93 302.499 1057.62 302.499C1059.32 302.499 1060.69 301.126 1060.69 299.431C1060.69 297.735 1059.32 296.36 1057.62 296.36C1055.93 296.36 1054.55 297.735 1054.55 299.431Z" fill="#007678"/>
<path d="M867.238 241.599C867.238 243.294 868.617 244.667 870.312 244.667C872.007 244.667 873.38 243.294 873.38 241.599C873.38 239.904 872.007 238.528 870.312 238.528C868.617 238.528 867.238 239.904 867.238 241.599Z" fill="#007678"/>
<path d="M808.385 348.56C808.385 350.255 809.758 351.634 811.456 351.634C813.155 351.634 814.527 350.255 814.527 348.56C814.527 346.865 813.155 345.489 811.456 345.489C809.758 345.489 808.385 346.865 808.385 348.56Z" fill="#007678"/>
<path d="M958.849 238.529C958.849 240.224 960.222 241.6 961.92 241.6C963.616 241.6 964.991 240.224 964.991 238.529C964.991 236.833 963.616 235.455 961.92 235.455C960.222 235.455 958.849 236.833 958.849 238.529Z" fill="#007678"/>
<path d="M1159.46 305.57C1159.46 307.265 1160.84 308.644 1162.54 308.644C1164.23 308.644 1165.61 307.265 1165.61 305.57C1165.61 303.874 1164.23 302.499 1162.54 302.499C1160.84 302.499 1159.46 303.874 1159.46 305.57Z" fill="#007678"/>
<path d="M1239.3 261.044C1239.3 262.739 1240.68 264.118 1242.37 264.118C1244.07 264.118 1245.44 262.739 1245.44 261.044C1245.44 259.349 1244.07 257.979 1242.37 257.979C1240.68 257.979 1239.3 259.349 1239.3 261.044Z" fill="#007678"/>
<path d="M1111 258.565C1111 259.938 1112.11 261.044 1113.48 261.044C1114.85 261.044 1115.96 259.938 1115.96 258.565C1115.96 257.196 1114.85 256.08 1113.48 256.08C1112.11 256.08 1111 257.196 1111 258.565Z" fill="#007678"/>
<path d="M1021.04 351.634C1021.04 352.257 1021.55 352.771 1022.18 352.771C1022.81 352.771 1023.32 352.257 1023.32 351.634C1023.32 351.001 1022.81 350.493 1022.18 350.493C1021.55 350.493 1021.04 351.001 1021.04 351.634Z" fill="#007678"/>
<path d="M1002.75 289.964C1002.75 290.588 1003.26 291.095 1003.88 291.095C1004.51 291.095 1005.02 290.588 1005.02 289.964C1005.02 289.334 1004.51 288.826 1003.88 288.826C1003.26 288.826 1002.75 289.334 1002.75 289.964Z" fill="#007678"/>
<path d="M914.979 338.072C914.979 338.696 915.486 339.209 916.116 339.209C916.743 339.209 917.254 338.696 917.254 338.072C917.254 337.439 916.743 336.931 916.116 336.931C915.486 336.931 914.979 337.439 914.979 338.072Z" fill="#007678"/>
<path d="M1141.95 250.042C1141.95 250.672 1142.46 251.179 1143.09 251.179C1143.72 251.179 1144.23 250.672 1144.23 250.042C1144.23 249.418 1143.72 248.901 1143.09 248.901C1142.46 248.901 1141.95 249.418 1141.95 250.042Z" fill="#007678"/>
<path d="M726.642 272.563C726.642 273.819 727.66 274.841 728.923 274.841C730.173 274.841 731.195 273.819 731.195 272.563C731.195 271.303 730.173 270.288 728.923 270.288C727.66 270.288 726.642 271.303 726.642 272.563Z" fill="#007678"/>
<path d="M804.496 274.841C804.496 278.677 807.611 281.798 811.456 281.798C815.301 281.798 818.416 278.677 818.416 274.841C818.416 270.996 815.301 267.875 811.456 267.875C807.611 267.875 804.496 270.996 804.496 274.841Z" fill="#007678"/>
<path d="M719.685 386.94C719.685 390.785 722.8 393.906 726.642 393.906C730.487 393.906 733.608 390.785 733.608 386.94C733.608 383.104 730.487 379.983 726.642 379.983C722.8 379.983 719.685 383.104 719.685 386.94Z" fill="#007678"/>
<path d="M1197.54 315.604C1197.54 319.446 1200.66 322.561 1204.5 322.561C1208.35 322.561 1211.46 319.446 1211.46 315.604C1211.46 311.759 1208.35 308.644 1204.5 308.644C1200.66 308.644 1197.54 311.759 1197.54 315.604Z" fill="#007678"/>
<path d="M1063.51 379.984C1063.51 382.271 1065.36 384.126 1067.65 384.126C1069.94 384.126 1071.8 382.271 1071.8 379.984C1071.8 377.693 1069.94 375.838 1067.65 375.838C1065.36 375.838 1063.51 377.693 1063.51 379.984Z" fill="#007678"/>
<path d="M1003.88 224.831C1003.88 227.119 1005.74 228.974 1008.03 228.974C1010.32 228.974 1012.17 227.119 1012.17 224.831C1012.17 222.541 1010.32 220.689 1008.03 220.689C1005.74 220.689 1003.88 222.541 1003.88 224.831Z" fill="#007678"/>
<path d="M1307.71 357.529C1307.71 359.224 1309.08 360.593 1310.78 360.593C1312.47 360.593 1313.85 359.224 1313.85 357.529C1313.85 355.83 1312.47 354.454 1310.78 354.454C1309.08 354.454 1307.71 355.83 1307.71 357.529Z" fill="#007678"/>
<path d="M1218.66 454.762C1218.66 456.456 1220.03 457.832 1221.73 457.832C1223.43 457.832 1224.8 456.456 1224.8 454.762C1224.8 453.067 1223.43 451.687 1221.73 451.687C1220.03 451.687 1218.66 453.067 1218.66 454.762Z" fill="#007678"/>
<path d="M1314.36 448.622C1314.36 450.317 1315.73 451.687 1317.43 451.687C1319.12 451.687 1320.5 450.317 1320.5 448.622C1320.5 446.928 1319.12 445.549 1317.43 445.549C1315.73 445.549 1314.36 446.928 1314.36 448.622Z" fill="#007678"/>
<path d="M1127.05 390.792C1127.05 392.487 1128.42 393.856 1130.12 393.856C1131.82 393.856 1133.19 392.487 1133.19 390.792C1133.19 389.096 1131.82 387.718 1130.12 387.718C1128.42 387.718 1127.05 389.096 1127.05 390.792Z" fill="#007678"/>
<path d="M1068.19 497.751C1068.19 499.447 1069.57 500.823 1071.27 500.823C1072.96 500.823 1074.34 499.447 1074.34 497.751C1074.34 496.056 1072.96 494.678 1071.27 494.678C1069.57 494.678 1068.19 496.056 1068.19 497.751Z" fill="#007678"/>
<path d="M1218.66 387.717C1218.66 389.413 1220.03 390.792 1221.73 390.792C1223.43 390.792 1224.8 389.413 1224.8 387.717C1224.8 386.022 1223.43 384.646 1221.73 384.646C1220.03 384.646 1218.66 386.022 1218.66 387.717Z" fill="#007678"/>
<path d="M1419.27 454.762C1419.27 456.456 1420.65 457.832 1422.34 457.832C1424.04 457.832 1425.41 456.456 1425.41 454.762C1425.41 453.067 1424.04 451.687 1422.34 451.687C1420.65 451.687 1419.27 453.067 1419.27 454.762Z" fill="#007678"/>
<path d="M1370.81 407.757C1370.81 409.127 1371.92 410.236 1373.29 410.236C1374.66 410.236 1375.77 409.127 1375.77 407.757C1375.77 406.385 1374.66 405.278 1373.29 405.278C1371.92 405.278 1370.81 406.385 1370.81 407.757Z" fill="#007678"/>
<path d="M1280.85 500.823C1280.85 501.452 1281.36 501.96 1281.99 501.96C1282.62 501.96 1283.13 501.452 1283.13 500.823C1283.13 500.192 1282.62 499.685 1281.99 499.685C1281.36 499.685 1280.85 500.192 1280.85 500.823Z" fill="#007678"/>
<path d="M1262.55 439.152C1262.55 439.779 1263.06 440.293 1263.69 440.293C1264.32 440.293 1264.83 439.779 1264.83 439.152C1264.83 438.523 1264.32 438.015 1263.69 438.015C1263.06 438.015 1262.55 438.523 1262.55 439.152Z" fill="#007678"/>
<path d="M1174.79 487.26C1174.79 487.89 1175.3 488.397 1175.93 488.397C1176.55 488.397 1177.06 487.89 1177.06 487.26C1177.06 486.63 1176.55 486.122 1175.93 486.122C1175.3 486.122 1174.79 486.63 1174.79 487.26Z" fill="#007678"/>
<path d="M1401.76 399.23C1401.76 399.86 1402.27 400.368 1402.9 400.368C1403.52 400.368 1404.03 399.86 1404.03 399.23C1404.03 398.607 1403.52 398.099 1402.9 398.099C1402.27 398.099 1401.76 398.607 1401.76 399.23Z" fill="#007678"/>
<path d="M986.45 421.755C986.45 423.008 987.469 424.03 988.728 424.03C989.982 424.03 991 423.008 991 421.755C991 420.492 989.982 419.476 988.728 419.476C987.469 419.476 986.45 420.492 986.45 421.755Z" fill="#007678"/>
<path d="M1064.31 424.03C1064.31 427.875 1067.42 430.99 1071.26 430.99C1075.11 430.99 1078.22 427.875 1078.22 424.03C1078.22 420.188 1075.11 417.067 1071.26 417.067C1067.42 417.067 1064.31 420.188 1064.31 424.03Z" fill="#007678"/>
<path d="M979.494 536.132C979.494 539.974 982.608 543.094 986.45 543.094C990.295 543.094 993.413 539.974 993.413 536.132C993.413 532.293 990.295 529.172 986.45 529.172C982.608 529.172 979.494 532.293 979.494 536.132Z" fill="#007678"/>
<path d="M1323.32 529.172C1323.32 531.46 1325.17 533.316 1327.46 533.316C1329.75 533.316 1331.6 531.46 1331.6 529.172C1331.6 526.882 1329.75 525.03 1327.46 525.03C1325.17 525.03 1323.32 526.882 1323.32 529.172Z" fill="#007678"/>
<path d="M1263.69 374.021C1263.69 376.312 1265.55 378.164 1267.84 378.164C1270.13 378.164 1271.98 376.312 1271.98 374.021C1271.98 371.733 1270.13 369.878 1267.84 369.878C1265.55 369.878 1263.69 371.733 1263.69 374.021Z" fill="#007678"/>
<path d="M1388.34 277.95C1388.34 279.645 1389.72 281.021 1391.41 281.021C1393.11 281.021 1394.48 279.645 1394.48 277.95C1394.48 276.255 1393.11 274.879 1391.41 274.879C1389.72 274.879 1388.34 276.255 1388.34 277.95Z" fill="#007678"/>
<path d="M1306.6 201.952C1306.6 203.206 1307.62 204.224 1308.88 204.224C1310.13 204.224 1311.15 203.206 1311.15 201.952C1311.15 200.693 1310.13 199.674 1308.88 199.674C1307.62 199.674 1306.6 200.693 1306.6 201.952Z" fill="#007678"/>
<path d="M1384.45 204.225C1384.45 208.067 1387.57 211.188 1391.41 211.188C1395.26 211.188 1398.37 208.067 1398.37 204.225C1398.37 200.386 1395.26 197.265 1391.41 197.265C1387.57 197.265 1384.45 200.386 1384.45 204.225Z" fill="#007678"/>
<path d="M1299.64 316.336C1299.64 320.175 1302.76 323.296 1306.6 323.296C1310.44 323.296 1313.56 320.175 1313.56 316.336C1313.56 312.491 1310.44 309.37 1306.6 309.37C1302.76 309.37 1299.64 312.491 1299.64 316.336Z" fill="#007678"/>
<path d="M449.977 235.304C449.977 236.999 451.352 238.375 453.048 238.375C454.746 238.375 456.116 236.999 456.116 235.304C456.116 233.608 454.746 232.236 453.048 232.236C451.352 232.236 449.977 233.608 449.977 235.304Z" fill="#007678"/>
<path d="M323.57 205.111C323.57 206.807 324.945 208.182 326.641 208.182C328.339 208.182 329.709 206.807 329.709 205.111C329.709 203.416 328.339 202.037 326.641 202.037C324.945 202.037 323.57 203.416 323.57 205.111Z" fill="#007678"/>
<path d="M234.518 302.345C234.518 304.04 235.897 305.419 237.592 305.419C239.291 305.419 240.66 304.04 240.66 302.345C240.66 300.65 239.291 299.28 237.592 299.28C235.897 299.28 234.518 300.65 234.518 302.345Z" fill="#007678"/>
<path d="M330.219 296.206C330.219 297.901 331.601 299.28 333.293 299.28C334.992 299.28 336.361 297.901 336.361 296.206C336.361 294.51 334.992 293.135 333.293 293.135C331.601 293.135 330.219 294.51 330.219 296.206Z" fill="#007678"/>
<path d="M142.913 238.375C142.913 240.07 144.286 241.449 145.981 241.449C147.676 241.449 149.055 240.07 149.055 238.375C149.055 236.68 147.676 235.304 145.981 235.304C144.286 235.304 142.913 236.68 142.913 238.375Z" fill="#007678"/>
<path d="M84.0602 345.335C84.0602 347.03 85.4296 348.406 87.1281 348.406C88.8265 348.406 90.1991 347.03 90.1991 345.335C90.1991 343.64 88.8265 342.267 87.1281 342.267C85.4296 342.267 84.0602 343.64 84.0602 345.335Z" fill="#007678"/>
<path d="M234.518 235.304C234.518 236.999 235.897 238.375 237.592 238.375C239.291 238.375 240.66 236.999 240.66 235.304C240.66 233.608 239.291 232.236 237.592 232.236C235.897 232.236 234.518 233.608 234.518 235.304Z" fill="#007678"/>
<path d="M435.136 302.345C435.136 304.04 436.512 305.419 438.207 305.419C439.899 305.419 441.278 304.04 441.278 302.345C441.278 300.65 439.899 299.28 438.207 299.28C436.512 299.28 435.136 300.65 435.136 302.345Z" fill="#007678"/>
<path d="M514.971 257.819C514.971 259.521 516.35 260.894 518.045 260.894C519.741 260.894 521.113 259.521 521.113 257.819C521.113 256.124 519.741 254.755 518.045 254.755C516.35 254.755 514.971 256.124 514.971 257.819Z" fill="#007678"/>
<path d="M386.675 255.341C386.675 256.713 387.781 257.819 389.157 257.819C390.523 257.819 391.635 256.713 391.635 255.341C391.635 253.971 390.523 252.862 389.157 252.862C387.781 252.862 386.675 253.971 386.675 255.341Z" fill="#007678"/>
<path d="M296.714 348.406C296.714 349.039 297.225 349.547 297.852 349.547C298.482 349.547 298.989 349.039 298.989 348.406C298.989 347.776 298.482 347.268 297.852 347.268C297.225 347.268 296.714 347.776 296.714 348.406Z" fill="#007678"/>
<path d="M278.42 286.74C278.42 287.37 278.928 287.877 279.555 287.877C280.181 287.877 280.695 287.37 280.695 286.74C280.695 286.107 280.181 285.599 279.555 285.599C278.928 285.599 278.42 286.107 278.42 286.74Z" fill="#007678"/>
<path d="M190.647 334.844C190.647 335.474 191.158 335.985 191.791 335.985C192.418 335.985 192.929 335.474 192.929 334.844C192.929 334.22 192.418 333.706 191.791 333.706C191.158 333.706 190.647 334.22 190.647 334.844Z" fill="#007678"/>
<path d="M417.622 246.82C417.622 247.447 418.13 247.96 418.763 247.96C419.39 247.96 419.901 247.447 419.901 246.82C419.901 246.19 419.39 245.682 418.763 245.682C418.13 245.682 417.622 246.19 417.622 246.82Z" fill="#007678"/>
<path d="M80.1683 271.613C80.1683 275.458 83.2831 278.573 87.1281 278.573C90.9762 278.573 94.0911 275.458 94.0911 271.613C94.0911 267.771 90.9762 264.657 87.1281 264.657C83.2831 264.657 80.1683 267.771 80.1683 271.613Z" fill="#007678"/>
<path d="M473.213 312.376C473.213 316.221 476.331 319.336 480.176 319.336C484.018 319.336 487.133 316.221 487.133 312.376C487.133 308.534 484.018 305.419 480.176 305.419C476.331 305.419 473.213 308.534 473.213 312.376Z" fill="#007678"/>
<path d="M339.185 376.756C339.185 379.047 341.034 380.905 343.327 380.905C345.609 380.905 347.47 379.047 347.47 376.756C347.47 374.475 345.609 372.613 343.327 372.613C341.034 372.613 339.185 374.475 339.185 376.756Z" fill="#007678"/>
<path d="M279.555 221.607C279.555 223.894 281.413 225.749 283.7 225.749C285.991 225.749 287.843 223.894 287.843 221.607C287.843 219.316 285.991 217.461 283.7 217.461C281.413 217.461 279.555 219.316 279.555 221.607Z" fill="#007678"/>
<path d="M206.262 43.2754C206.262 44.9707 207.638 46.3433 209.333 46.3433C211.028 46.3433 212.404 44.9707 212.404 43.2754C212.404 41.5739 211.028 40.2045 209.333 40.2045C207.638 40.2045 206.262 41.5739 206.262 43.2754Z" fill="#007678"/>
<path d="M79.8548 13.0797C79.8548 14.775 81.2274 16.1506 82.9258 16.1506C84.6242 16.1506 85.9967 14.775 85.9967 13.0797C85.9967 11.3844 84.6242 10.0118 82.9258 10.0118C81.2274 10.0118 79.8548 11.3844 79.8548 13.0797Z" fill="#007678"/>
<path d="M86.5078 104.175C86.5078 105.87 87.8804 107.246 89.5757 107.246C91.271 107.246 92.6498 105.87 92.6498 104.175C92.6498 102.479 91.271 101.101 89.5757 101.101C87.8804 101.101 86.5078 102.479 86.5078 104.175Z" fill="#007678"/>
<path d="M191.418 110.32C191.418 112.015 192.797 113.391 194.492 113.391C196.188 113.391 197.563 112.015 197.563 110.32C197.563 108.625 196.188 107.246 194.492 107.246C192.797 107.246 191.418 108.625 191.418 110.32Z" fill="#007678"/>
<path d="M271.26 65.7933C271.26 67.4886 272.632 68.8643 274.328 68.8643C276.02 68.8643 277.402 67.4886 277.402 65.7933C277.402 64.098 276.02 62.7193 274.328 62.7193C272.632 62.7193 271.26 64.098 271.26 65.7933Z" fill="#007678"/>
<path d="M142.96 63.3083C142.96 64.6777 144.069 65.7932 145.435 65.7932C146.811 65.7932 147.917 64.6777 147.917 63.3083C147.917 61.9357 146.811 60.8296 145.435 60.8296C144.069 60.8296 142.96 61.9357 142.96 63.3083Z" fill="#007678"/>
<path d="M52.9967 156.374C52.9967 157.004 53.5106 157.511 54.1405 157.511C54.7672 157.511 55.2781 157.004 55.2781 156.374C55.2781 155.75 54.7672 155.243 54.1405 155.243C53.5106 155.243 52.9967 155.75 52.9967 156.374Z" fill="#007678"/>
<path d="M34.7056 94.705C34.7056 95.338 35.2133 95.8457 35.84 95.8457C36.4699 95.8457 36.9807 95.338 36.9807 94.705C36.9807 94.0814 36.4699 93.5676 35.84 93.5676C35.2133 93.5676 34.7056 94.0814 34.7056 94.705Z" fill="#007678"/>
<path d="M173.905 54.789C173.905 55.4189 174.416 55.9265 175.046 55.9265C175.675 55.9265 176.183 55.4189 176.183 54.789C176.183 54.1592 175.675 53.6515 175.046 53.6515C174.416 53.6515 173.905 54.1592 173.905 54.789Z" fill="#007678"/>
<path d="M229.498 120.35C229.498 124.189 232.613 127.31 236.455 127.31C240.303 127.31 243.418 124.189 243.418 120.35C243.418 116.505 240.303 113.39 236.455 113.39C232.613 113.39 229.498 116.505 229.498 120.35Z" fill="#007678"/>
<path d="M95.4638 184.731C95.4638 187.018 97.3189 188.873 99.6096 188.873C101.897 188.873 103.755 187.018 103.755 184.731C103.755 182.44 101.897 180.588 99.6096 180.588C97.3189 180.588 95.4638 182.44 95.4638 184.731Z" fill="#007678"/>
<path d="M35.8404 29.5783C35.8404 31.8627 37.7018 33.7209 39.9862 33.7209C42.2769 33.7209 44.1289 31.8627 44.1289 29.5783C44.1289 27.2908 42.2769 25.4357 39.9862 25.4357C37.7018 25.4357 35.8404 27.2908 35.8404 29.5783Z" fill="#007678"/>
<path d="M1269.97 545.147C1269.97 546.843 1271.34 548.218 1273.03 548.218C1274.73 548.218 1276.11 546.843 1276.11 545.147C1276.11 543.452 1274.73 542.074 1273.03 542.074C1271.34 542.074 1269.97 543.452 1269.97 545.147Z" fill="#007678"/>
<path d="M1143.56 514.955C1143.56 516.65 1144.93 518.02 1146.63 518.02C1148.32 518.02 1149.7 516.65 1149.7 514.955C1149.7 513.261 1148.32 511.881 1146.63 511.881C1144.93 511.881 1143.56 513.261 1143.56 514.955Z" fill="#007678"/>
<path d="M1054.51 612.189C1054.51 613.885 1055.88 615.263 1057.58 615.263C1059.28 615.263 1060.65 613.885 1060.65 612.189C1060.65 610.494 1059.28 609.118 1057.58 609.118C1055.88 609.118 1054.51 610.494 1054.51 612.189Z" fill="#007678"/>
<path d="M1150.21 606.05C1150.21 607.745 1151.59 609.117 1153.28 609.117C1154.98 609.117 1156.35 607.745 1156.35 606.05C1156.35 604.354 1154.98 602.978 1153.28 602.978C1151.59 602.978 1150.21 604.354 1150.21 606.05Z" fill="#007678"/>
<path d="M962.901 548.218C962.901 549.913 964.277 551.286 965.969 551.286C967.668 551.286 969.043 549.913 969.043 548.218C969.043 546.523 967.668 545.147 965.969 545.147C964.277 545.147 962.901 546.523 962.901 548.218Z" fill="#007678"/>
<path d="M1054.51 545.147C1054.51 546.843 1055.88 548.218 1057.58 548.218C1059.28 548.218 1060.65 546.843 1060.65 545.147C1060.65 543.452 1059.28 542.074 1057.58 542.074C1055.88 542.074 1054.51 543.452 1054.51 545.147Z" fill="#007678"/>
<path d="M1255.13 612.189C1255.13 613.885 1256.5 615.263 1258.2 615.263C1259.89 615.263 1261.27 613.885 1261.27 612.189C1261.27 610.494 1259.89 609.118 1258.2 609.118C1256.5 609.118 1255.13 610.494 1255.13 612.189Z" fill="#007678"/>
<path d="M1334.96 567.663C1334.96 569.358 1336.34 570.737 1338.03 570.737C1339.73 570.737 1341.1 569.358 1341.1 567.663C1341.1 565.968 1339.73 564.598 1338.03 564.598C1336.34 564.598 1334.96 565.968 1334.96 567.663Z" fill="#007678"/>
<path d="M1206.66 565.184C1206.66 566.556 1207.77 567.663 1209.14 567.663C1210.51 567.663 1211.62 566.556 1211.62 565.184C1211.62 563.814 1210.51 562.705 1209.14 562.705C1207.77 562.705 1206.66 563.814 1206.66 565.184Z" fill="#007678"/>
<path d="M1098.41 596.583C1098.41 597.205 1098.92 597.72 1099.54 597.72C1100.17 597.72 1100.68 597.205 1100.68 596.583C1100.68 595.95 1100.17 595.442 1099.54 595.442C1098.92 595.442 1098.41 595.95 1098.41 596.583Z" fill="#007678"/>
<path d="M1237.61 556.657C1237.61 557.29 1238.12 557.798 1238.75 557.798C1239.38 557.798 1239.89 557.29 1239.89 556.657C1239.89 556.035 1239.38 555.526 1238.75 555.526C1238.12 555.526 1237.61 556.035 1237.61 556.657Z" fill="#007678"/>
<path d="M822.302 579.182C822.302 580.436 823.323 581.458 824.583 581.458C825.833 581.458 826.858 580.436 826.858 579.182C826.858 577.922 825.833 576.904 824.583 576.904C823.323 576.904 822.302 577.922 822.302 579.182Z" fill="#007678"/>
<path d="M900.157 581.457C900.157 585.302 903.275 588.417 907.12 588.417C910.961 588.417 914.079 585.302 914.079 581.457C914.079 577.615 910.961 574.494 907.12 574.494C903.275 574.494 900.157 577.615 900.157 581.457Z" fill="#007678"/>
<path d="M1099.54 531.448C1099.54 533.738 1101.4 535.594 1103.69 535.594C1105.98 535.594 1107.83 533.738 1107.83 531.448C1107.83 529.16 1105.98 527.304 1103.69 527.304C1101.4 527.304 1099.54 529.16 1099.54 531.448Z" fill="#007678"/>
<path d="M874.521 396.777C874.521 398.472 875.896 399.848 877.588 399.848C879.287 399.848 880.659 398.472 880.659 396.777C880.659 395.082 879.287 393.709 877.588 393.709C875.896 393.709 874.521 395.082 874.521 396.777Z" fill="#007678"/>
<path d="M748.113 366.584C748.113 368.279 749.486 369.658 751.181 369.658C752.88 369.658 754.255 368.279 754.255 366.584C754.255 364.888 752.88 363.513 751.181 363.513C749.486 363.513 748.113 364.888 748.113 366.584Z" fill="#007678"/>
<path d="M659.065 463.817C659.065 465.513 660.434 466.891 662.133 466.891C663.828 466.891 665.207 465.513 665.207 463.817C665.207 462.122 663.828 460.752 662.133 460.752C660.434 460.752 659.065 462.122 659.065 463.817Z" fill="#007678"/>
<path d="M754.763 457.679C754.763 459.375 756.138 460.753 757.83 460.753C759.529 460.753 760.904 459.375 760.904 457.679C760.904 455.984 759.529 454.608 757.83 454.608C756.138 454.608 754.763 455.984 754.763 457.679Z" fill="#007678"/>
<path d="M567.45 399.847C567.45 401.542 568.829 402.921 570.524 402.921C572.223 402.921 573.592 401.542 573.592 399.847C573.592 398.152 572.223 396.776 570.524 396.776C568.829 396.776 567.45 398.152 567.45 399.847Z" fill="#007678"/>
<path d="M508.601 506.807C508.601 508.502 509.976 509.881 511.672 509.881C513.37 509.881 514.742 508.502 514.742 506.807C514.742 505.119 513.37 503.743 511.672 503.743C509.976 503.743 508.601 505.119 508.601 506.807Z" fill="#007678"/>
<path d="M659.065 396.777C659.065 398.472 660.434 399.848 662.133 399.848C663.828 399.848 665.207 398.472 665.207 396.777C665.207 395.082 663.828 393.709 662.133 393.709C660.434 393.709 659.065 395.082 659.065 396.777Z" fill="#007678"/>
<path d="M859.677 463.817C859.677 465.513 861.055 466.891 862.751 466.891C864.443 466.891 865.818 465.513 865.818 463.817C865.818 462.122 864.443 460.752 862.751 460.752C861.055 460.752 859.677 462.122 859.677 463.817Z" fill="#007678"/>
<path d="M939.515 419.291C939.515 420.993 940.891 422.365 942.583 422.365C944.278 422.365 945.657 420.993 945.657 419.291C945.657 417.596 944.278 416.227 942.583 416.227C940.891 416.227 939.515 417.596 939.515 419.291Z" fill="#007678"/>
<path d="M811.215 416.814C811.215 418.186 812.328 419.292 813.694 419.292C815.066 419.292 816.176 418.186 816.176 416.814C816.176 415.444 815.066 414.335 813.694 414.335C812.328 414.335 811.215 415.444 811.215 416.814Z" fill="#007678"/>
<path d="M721.255 509.881C721.255 510.505 721.763 511.019 722.396 511.019C723.026 511.019 723.533 510.505 723.533 509.881C723.533 509.255 723.026 508.741 722.396 508.741C721.763 508.741 721.255 509.255 721.255 509.881Z" fill="#007678"/>
<path d="M702.957 448.213C702.957 448.843 703.468 449.35 704.098 449.35C704.728 449.35 705.239 448.843 705.239 448.213C705.239 447.584 704.728 447.076 704.098 447.076C703.468 447.076 702.957 447.584 702.957 448.213Z" fill="#007678"/>
<path d="M615.194 496.319C615.194 496.95 615.705 497.457 616.332 497.457C616.955 497.457 617.463 496.95 617.463 496.319C617.463 495.693 616.955 495.178 616.332 495.178C615.705 495.178 615.194 495.693 615.194 496.319Z" fill="#007678"/>
<path d="M842.16 408.296C842.16 408.92 842.671 409.434 843.303 409.434C843.933 409.434 844.441 408.92 844.441 408.296C844.441 407.666 843.933 407.155 843.303 407.155C842.671 407.155 842.16 407.666 842.16 408.296Z" fill="#007678"/>
<path d="M426.854 430.811C426.854 432.067 427.875 433.09 429.138 433.09C430.389 433.09 431.41 432.067 431.41 430.811C431.41 429.557 430.389 428.536 429.138 428.536C427.875 428.536 426.854 429.557 426.854 430.811Z" fill="#007678"/>
<path d="M504.709 433.09C504.709 436.931 507.83 440.046 511.672 440.046C515.517 440.046 518.629 436.931 518.629 433.09C518.629 429.244 515.517 426.129 511.672 426.129C507.83 426.129 504.709 429.244 504.709 433.09Z" fill="#007678"/>
<path d="M419.9 545.194C419.9 549.033 423.012 552.154 426.854 552.154C430.702 552.154 433.82 549.033 433.82 545.194C433.82 541.353 430.702 538.232 426.854 538.232C423.012 538.232 419.9 541.353 419.9 545.194Z" fill="#007678"/>
<path d="M897.756 473.852C897.756 477.694 900.871 480.808 904.713 480.808C908.558 480.808 911.676 477.694 911.676 473.852C911.676 470.007 908.558 466.891 904.713 466.891C900.871 466.891 897.756 470.007 897.756 473.852Z" fill="#007678"/>
<path d="M763.722 538.231C763.722 540.519 765.577 542.38 767.865 542.38C770.152 542.38 772.013 540.519 772.013 538.231C772.013 535.947 770.152 534.085 767.865 534.085C765.577 534.085 763.722 535.947 763.722 538.231Z" fill="#007678"/>
<path d="M704.098 383.08C704.098 385.367 705.956 387.222 708.241 387.222C710.532 387.222 712.383 385.367 712.383 383.08C712.383 380.789 710.532 378.937 708.241 378.937C705.956 378.937 704.098 380.789 704.098 383.08Z" fill="#007678"/>
<path d="M0.041626 538.567V450.153C42.3018 451.011 107.384 450.838 166.19 444.456C263.366 433.904 425.356 378.753 436.565 376.825C447.771 374.892 477.6 372.485 513.135 379.896C548.667 387.301 549.708 363.084 568.685 351.02C587.659 338.952 576.879 353.684 597.903 353.292C618.933 352.9 623.903 339.062 641.047 323.24C658.194 307.419 716.909 334.882 735.234 352.154C753.563 369.424 841.204 397.517 876.141 419.812C928.381 453.144 1047.21 426.321 1055.58 421.755C1063.93 417.183 1093.11 370.398 1108.03 370.687C1122.95 370.975 1166.78 398.902 1186.64 403.731C1206.49 408.566 1259.26 402.775 1291.66 401.766C1324.05 400.754 1324.05 380.84 1336.78 370.687C1349.52 360.527 1375.26 368.305 1397.2 386.856C1407.11 395.229 1423.73 398.999 1439 400.619V538.567H0.041626Z" fill="#00595B"/>
<path d="M0.041626 595.442V416.406C16.7251 423.657 42.5054 433.474 69.0127 438.194C113.943 446.197 150.521 449.662 169.329 435.922C188.141 422.175 186.044 407.553 221.579 412.774C257.109 417.994 251.885 423.958 289.504 424.638C327.123 425.308 355.338 410.687 372.059 407.553C388.784 404.42 549.564 420.73 595.355 433.988C641.144 447.244 703.02 475.593 746.54 469.254C790.057 462.912 918.015 460.907 951.533 458.627C982.035 456.554 1320.48 443.737 1439 465.023V552.74L0.041626 595.442Z" fill="#005E60"/>
<path d="M0.041626 617.189V580.216C55.5758 572.029 147.256 559.13 188.899 556.811C250.791 553.361 261.812 532.063 295.013 516.657C328.21 501.253 384.08 527.362 439.636 542.914C495.198 558.466 547.094 535.196 605.063 527.22C663.038 519.245 736.763 510.127 770.516 498.435C804.271 486.746 863.732 478.791 885.72 480.025C907.712 481.262 951.511 494.459 965.462 487.947C979.416 481.435 1011.43 490.554 1023.66 476.801C1035.88 463.047 1190.3 436.969 1248.04 473.852C1299.47 506.705 1397.83 459.873 1439 464.413V617.189H0.041626Z" fill="#006769"/>
<path d="M1171.86 364.18C1171.86 387.999 1151.27 407.308 1125.88 407.308C1100.49 407.308 1079.91 387.999 1079.91 364.18C1079.91 340.352 1100.49 321.043 1125.88 321.043C1151.27 321.043 1171.86 340.352 1171.86 364.18Z" fill="#006062"/>
<path d="M1176.24 382.663H1074.98V364.181H1176.24V382.663Z" fill="#006062"/>
<path d="M1171.86 490.683V376.634H1079.91V490.683H1171.86Z" fill="#006062"/>
<path d="M1207.93 490.683V391.679H1045.42V490.683H1207.93Z" fill="#006062"/>
<path d="M1128.77 301.176C1127.68 288.043 1126.33 270.128 1125.98 265.337H1125.79C1125.42 270.238 1124.08 288.043 1122.99 301.097C1121.72 316.374 1109.13 323.998 1109.13 323.998V324.581L1125.88 327.837V327.915L1142.64 324.659V324.079C1142.64 324.079 1130.04 316.452 1128.77 301.176Z" fill="#006062"/>
<path d="M1130.27 290.55C1130.27 291.884 1129.19 292.962 1127.87 292.962H1123.91C1122.59 292.962 1121.51 291.884 1121.51 290.55C1121.51 289.23 1122.59 288.152 1123.91 288.152H1127.87C1129.19 288.152 1130.27 289.23 1130.27 290.55Z" fill="#006062"/>
<path d="M1133.08 265.465C1128.22 267.054 1122.99 264.412 1121.4 259.558C1119.81 254.698 1122.45 249.471 1127.3 247.873C1128.26 247.563 1129.23 247.416 1130.19 247.416C1128.14 246.792 1125.89 246.761 1123.7 247.481C1118.07 249.33 1114.99 255.41 1116.84 261.05C1118.69 266.7 1124.77 269.774 1130.41 267.919C1132.59 267.201 1134.39 265.838 1135.67 264.124C1134.9 264.688 1134.03 265.146 1133.08 265.465Z" fill="#006062"/>
<path d="M1128.88 247.422L1131.81 253.645L1138.63 252.777L1133.62 257.496L1136.55 263.72L1130.53 260.401L1125.52 265.114L1126.8 258.358L1120.77 255.046L1127.59 254.178L1128.88 247.422Z" fill="#006062"/>
<path d="M1197.77 396.714H1207.93V386.138H1197.77V396.714Z" fill="#006062"/>
<path d="M1181.56 396.714H1191.71V386.138H1181.56V396.714Z" fill="#006062"/>
<path d="M1165.34 396.714H1175.5V386.138H1165.34V396.714Z" fill="#006062"/>
<path d="M1077.85 396.714H1088V386.138H1077.85V396.714Z" fill="#006062"/>
<path d="M1061.64 396.714H1071.79V386.138H1061.64V396.714Z" fill="#006062"/>
<path d="M1045.42 396.714H1055.58V386.138H1045.42V396.714Z" fill="#006062"/>
<path d="M1103.62 488.128V432.962C1103.62 425.757 1106.92 419.33 1112.09 415.09C1116.07 411.822 1123.2 407.689 1126.73 399.316C1129.06 405.445 1137.35 411.803 1141.33 415.046C1146.53 419.286 1149.85 425.738 1149.85 432.962V488.128H1103.62Z" fill="#1D8688"/>
<path d="M1144.75 440.977H1155.16V437.527H1144.75V440.977Z" fill="#006062"/>
<path d="M1145.83 443.78H1156.25V440.327H1145.83V443.78Z" fill="#006062"/>
<path d="M1147.65 446.42H1158.06V442.966H1147.65V446.42Z" fill="#006062"/>
<path d="M1108.72 440.977H1098.31V437.527H1108.72V440.977Z" fill="#006062"/>
<path d="M1107.64 443.78H1097.22V440.327H1107.64V443.78Z" fill="#006062"/>
<path d="M1105.83 446.42H1095.41V442.966H1105.83V446.42Z" fill="#006062"/>
<path d="M1163.91 466.654V435.42C1163.91 431.196 1165.84 427.433 1168.87 424.948C1171.21 423.033 1175.38 420.608 1177.46 415.707C1178.82 419.292 1183.68 423.021 1186.01 424.923C1189.05 427.408 1191 431.184 1191 435.42V466.654H1163.91Z" fill="#1D8688"/>
<path d="M1188.01 440.121H1194.11V438.093H1188.01V440.121Z" fill="#006062"/>
<path d="M1188.65 441.76H1194.75V439.735H1188.65V441.76Z" fill="#006062"/>
<path d="M1189.71 443.304H1195.81V441.283H1189.71V443.304Z" fill="#006062"/>
<path d="M1166.9 440.121H1160.8V438.093H1166.9V440.121Z" fill="#006062"/>
<path d="M1166.26 441.76H1160.16V439.735H1166.26V441.76Z" fill="#006062"/>
<path d="M1165.2 443.304H1159.1V441.283H1165.2V443.304Z" fill="#006062"/>
<path d="M1062.08 466.654V435.42C1062.08 431.196 1064.02 427.433 1067.04 424.948C1069.38 423.033 1073.56 420.608 1075.62 415.707C1076.99 419.292 1081.85 423.021 1084.18 424.923C1087.23 427.408 1089.17 431.184 1089.17 435.42V466.654H1062.08Z" fill="#1D8688"/>
<path d="M1086.18 440.121H1092.29V438.093H1086.18V440.121Z" fill="#006062"/>
<path d="M1086.82 441.76H1092.93V439.735H1086.82V441.76Z" fill="#006062"/>
<path d="M1087.89 443.304H1093.98V441.283H1087.89V443.304Z" fill="#006062"/>
<path d="M1065.08 440.121H1058.97V438.093H1065.08V440.121Z" fill="#006062"/>
<path d="M1064.43 441.76H1058.33V439.735H1064.43V441.76Z" fill="#006062"/>
<path d="M1063.37 443.304H1057.27V441.283H1063.37V443.304Z" fill="#006062"/>
<path d="M1214.33 288.899H1238.22V285.208H1214.33V288.899Z" fill="#006062"/>
<path d="M1214.33 312.72H1238.22V309.029H1214.33V312.72Z" fill="#006062"/>
<path d="M1214.33 471.182H1237.85L1235.28 291.678H1216.91L1214.33 471.182Z" fill="#006062"/>
<path d="M1217.04 278.548C1216.96 278.09 1216.91 277.62 1216.91 277.141C1216.91 273.352 1219.51 270.14 1223.13 268.984C1223.3 268.884 1225.4 267.508 1225.63 264.851C1225.68 264.208 1225.74 263.506 1225.79 262.801H1225.55C1225.34 262.801 1225.17 262.604 1225.17 262.36C1225.17 262.121 1225.34 261.927 1225.55 261.927H1225.86C1225.99 260.348 1226.09 258.903 1226.13 258.37H1226.17C1226.21 258.922 1226.32 260.354 1226.44 261.927H1226.74C1226.96 261.927 1227.13 262.121 1227.13 262.36C1227.13 262.604 1226.96 262.801 1226.74 262.801H1226.51C1226.56 263.5 1226.62 264.196 1226.67 264.838C1226.91 267.605 1229.18 268.984 1229.18 268.984V269.025C1232.73 270.219 1235.28 273.396 1235.28 277.141C1235.28 277.62 1235.23 278.09 1235.15 278.548H1217.04Z" fill="#006062"/>
<path d="M1218.71 295.896H1233.29V277.257H1218.71V295.896Z" fill="#006062"/>
<path d="M1230.17 305.296V297.951C1230.17 296.854 1231.06 295.968 1232.16 295.968C1233.25 295.968 1234.14 296.854 1234.14 297.951V305.296H1230.17Z" fill="#006062"/>
<path d="M1224.29 305.296V297.951C1224.29 296.854 1225.18 295.968 1226.27 295.968C1227.37 295.968 1228.26 296.854 1228.26 297.951V305.296H1224.29Z" fill="#006062"/>
<path d="M1218.41 305.296V297.951C1218.41 296.854 1219.29 295.968 1220.39 295.968C1221.49 295.968 1222.37 296.854 1222.37 297.951V305.296H1218.41Z" fill="#006062"/>
<path d="M1013.7 369.248H1037.59V365.557H1013.7V369.248Z" fill="#006062"/>
<path d="M1013.7 393.066H1037.59V389.378H1013.7V393.066Z" fill="#006062"/>
<path d="M1013.7 551.531H1037.21L1034.64 372.025H1016.28L1013.7 551.531Z" fill="#006062"/>
<path d="M1016.41 358.48C1016.33 358.023 1016.28 357.556 1016.28 357.073C1016.28 353.285 1018.88 350.079 1022.5 348.92C1022.66 348.816 1024.77 347.447 1024.99 344.79C1025.04 344.147 1025.1 343.436 1025.15 342.734H1024.92C1024.71 342.734 1024.53 342.537 1024.53 342.298C1024.53 342.06 1024.71 341.863 1024.92 341.863H1025.22C1025.35 340.28 1025.45 338.842 1025.5 338.309H1025.54C1025.57 338.855 1025.68 340.293 1025.81 341.863H1026.11C1026.33 341.863 1026.49 342.06 1026.49 342.298C1026.49 342.537 1026.33 342.734 1026.11 342.734H1025.87C1025.93 343.436 1025.98 344.135 1026.04 344.777C1026.27 347.538 1028.55 348.914 1028.55 348.914V348.964C1032.1 350.158 1034.64 353.335 1034.64 357.073C1034.64 357.556 1034.6 358.023 1034.51 358.48H1016.41Z" fill="#006062"/>
<path d="M1018.08 376.242H1032.65V357.397H1018.08V376.242Z" fill="#006062"/>
<path d="M1029.54 385.643V378.298C1029.54 377.204 1030.43 376.318 1031.52 376.318C1032.62 376.318 1033.51 377.204 1033.51 378.298V385.643H1029.54Z" fill="#006062"/>
<path d="M1023.66 385.643V378.298C1023.66 377.204 1024.54 376.318 1025.64 376.318C1026.74 376.318 1027.62 377.204 1027.62 378.298V385.643H1023.66Z" fill="#006062"/>
<path d="M1017.77 385.643V378.298C1017.77 377.204 1018.66 376.318 1019.75 376.318C1020.85 376.318 1021.74 377.204 1021.74 378.298V385.643H1017.77Z" fill="#006062"/>
<path d="M1258.81 476.801L1256.9 476.475C1256.99 475.939 1265.93 422.354 1261.61 384.543L1263.53 384.321C1267.88 422.41 1258.9 476.255 1258.81 476.801Z" fill="#006062"/>
<path d="M1262.57 385.22C1262.57 385.22 1284.37 387.172 1269.94 415.353C1270 412.457 1270.32 405.375 1269.75 403.154C1269.61 406.607 1268.73 410.627 1268.73 410.627C1268.73 410.627 1268.76 398.14 1268.29 395.075C1268.05 397.908 1267.67 402.069 1267.67 402.069C1267.67 402.069 1266.09 394.433 1262.57 385.22Z" fill="#006062"/>
<path d="M1261.31 385.38C1261.31 385.38 1269.76 380.275 1278.26 384.37C1286.76 388.472 1287.33 399.622 1281.28 405.425C1282.04 400.321 1280.97 395.338 1280.97 395.338C1280.97 395.338 1280.46 399.941 1279.2 401.521C1279.52 398.049 1279.27 392.693 1277.44 390.356C1278.13 393.135 1277.82 395.526 1277.51 396.41C1277.12 393.765 1275.04 388.723 1272.21 387.394C1274.48 390.425 1274.42 393.135 1274.42 393.135C1274.42 393.135 1269.12 384.941 1261.31 385.38Z" fill="#006062"/>
<path d="M1261.72 386.586C1261.72 386.586 1264.24 377.038 1273.2 374.076C1282.16 371.106 1290.32 378.733 1289.99 387.112C1286.99 382.913 1282.76 380.08 1282.76 380.08C1282.76 380.08 1285.6 383.741 1285.78 385.746C1283.61 383.035 1279.7 379.357 1276.77 378.946C1279.2 380.466 1280.63 382.406 1281.02 383.255C1278.91 381.616 1273.91 379.438 1270.95 380.453C1274.68 381.052 1276.52 383.048 1276.52 383.048C1276.52 383.048 1267.02 380.833 1261.72 386.586Z" fill="#006062"/>
<path d="M1263.1 385.881C1263.1 385.881 1241.31 387.833 1255.73 416.014C1255.67 413.112 1255.35 406.036 1255.92 403.814C1256.06 407.268 1256.95 411.288 1256.95 411.288C1256.95 411.288 1256.91 398.801 1257.39 395.73C1257.62 398.569 1258 402.73 1258 402.73C1258 402.73 1259.58 395.094 1263.1 385.881Z" fill="#006062"/>
<path d="M1264.36 386.034C1264.36 386.034 1255.92 380.929 1247.42 385.031C1238.91 389.124 1238.35 400.283 1244.39 406.086C1243.64 400.982 1244.71 395.999 1244.71 395.999C1244.71 395.999 1245.21 400.602 1246.47 402.175C1246.15 398.71 1246.41 393.348 1248.23 391.017C1247.54 393.796 1247.86 396.187 1248.17 397.071C1248.55 394.426 1250.63 389.378 1253.46 388.055C1251.19 391.082 1251.26 393.796 1251.26 393.796C1251.26 393.796 1256.55 385.595 1264.36 386.034Z" fill="#006062"/>
<path d="M1263.96 387.24C1263.96 387.24 1261.43 377.699 1252.47 374.731C1243.52 371.767 1235.36 379.394 1235.68 387.773C1238.68 383.574 1242.91 380.741 1242.91 380.741C1242.91 380.741 1240.08 384.395 1239.89 386.407C1242.07 383.69 1245.97 380.017 1248.9 379.607C1246.48 381.12 1245.04 383.06 1244.66 383.916C1246.77 382.277 1251.76 380.099 1254.72 381.114C1250.99 381.713 1249.15 383.709 1249.15 383.709C1249.15 383.709 1258.65 381.493 1263.96 387.24Z" fill="#006062"/>
<path d="M1264.74 386.759C1264.74 386.759 1260.03 378.091 1264.49 369.768C1268.97 361.448 1280.13 361.383 1285.65 367.688C1280.59 366.7 1275.57 367.553 1275.57 367.553C1275.57 367.553 1280.14 368.261 1281.65 369.59C1278.21 369.126 1272.85 369.138 1270.44 370.856C1273.24 370.288 1275.61 370.711 1276.48 371.066C1273.82 371.323 1268.7 373.178 1267.25 375.948C1270.37 373.82 1273.07 374.002 1273.07 374.002C1273.07 374.002 1264.65 378.931 1264.74 386.759Z" fill="#006062"/>
<path d="M1261.83 386.759C1261.83 386.759 1267.16 378.452 1263.3 369.834C1259.44 361.21 1248.31 360.336 1242.35 366.23C1247.47 365.613 1252.41 366.823 1252.41 366.823C1252.41 366.823 1247.81 367.196 1246.2 368.415C1249.67 368.195 1255.01 368.599 1257.29 370.489C1254.55 369.718 1252.14 369.963 1251.25 370.257C1253.89 370.711 1258.86 372.927 1260.11 375.804C1257.15 373.447 1254.44 373.435 1254.44 373.435C1254.44 373.435 1262.48 378.953 1261.83 386.759Z" fill="#006062"/>
<path d="M1269.69 471.476L1267.76 471.323C1267.8 470.778 1282.7 374.779 1273.69 324.466L1275.58 324.08C1283.62 383.356 1269.73 470.931 1269.69 471.476Z" fill="#006062"/>
<path d="M1274.71 325.058C1274.71 325.058 1296.59 325.108 1284.67 354.435C1284.48 351.54 1284.18 344.467 1283.42 342.299C1283.58 345.752 1283.05 349.832 1283.05 349.832C1283.05 349.832 1282 337.398 1281.26 334.374C1281.27 337.219 1281.26 341.399 1281.26 341.399C1281.26 341.399 1279.02 333.926 1274.71 325.058Z" fill="#006062"/>
<path d="M1273.46 325.327C1273.46 325.327 1281.43 319.502 1290.26 322.842C1299.09 326.186 1300.62 337.251 1295.1 343.559C1295.41 338.401 1293.91 333.534 1293.91 333.534C1293.91 333.534 1293.81 338.169 1292.69 339.845C1292.7 336.364 1291.99 331.049 1289.96 328.884C1290.9 331.588 1290.79 334.001 1290.55 334.907C1289.95 332.299 1287.44 327.458 1284.5 326.386C1287.02 329.2 1287.19 331.908 1287.19 331.908C1287.19 331.908 1281.21 324.208 1273.46 325.327Z" fill="#006062"/>
<path d="M1273.97 326.49C1273.97 326.49 1275.65 316.766 1284.32 313.025C1292.99 309.292 1301.78 316.183 1302.19 324.556C1298.83 320.633 1294.37 318.179 1294.37 318.179C1294.37 318.179 1297.52 321.576 1297.88 323.56C1295.47 321.05 1291.26 317.725 1288.3 317.578C1290.85 318.872 1292.45 320.677 1292.9 321.495C1290.66 320.047 1285.5 318.308 1282.64 319.58C1286.41 319.85 1288.41 321.68 1288.41 321.68C1288.41 321.68 1278.76 320.304 1273.97 326.49Z" fill="#006062"/>
<path d="M1275.29 325.669C1275.29 325.669 1253.75 329.514 1270.57 356.334C1270.25 353.452 1269.33 346.426 1269.7 344.167C1270.14 347.589 1271.37 351.518 1271.37 351.518C1271.37 351.518 1270.25 339.087 1270.46 335.985C1270.93 338.786 1271.67 342.901 1271.67 342.901C1271.67 342.901 1272.58 335.151 1275.29 325.669Z" fill="#006062"/>
<path d="M1276.56 325.718C1276.56 325.718 1267.7 321.366 1259.59 326.192C1251.47 331.014 1251.88 342.176 1258.41 347.428C1257.21 342.408 1257.85 337.354 1257.85 337.354C1257.85 337.354 1258.75 341.894 1260.14 343.351C1259.53 339.923 1259.31 334.568 1260.93 332.083C1260.48 334.906 1261 337.269 1261.39 338.118C1261.54 335.451 1263.17 330.24 1265.88 328.673C1263.88 331.889 1264.18 334.587 1264.18 334.587C1264.18 334.587 1268.74 325.957 1276.56 325.718Z" fill="#006062"/>
<path d="M1276.27 326.957C1276.27 326.957 1272.92 317.665 1263.73 315.491C1254.55 313.319 1247.08 321.629 1248.14 329.943C1250.76 325.499 1254.73 322.303 1254.73 322.303C1254.73 322.303 1252.23 326.195 1252.22 328.216C1254.15 325.327 1257.71 321.325 1260.6 320.658C1258.32 322.378 1257.05 324.44 1256.75 325.321C1258.71 323.503 1263.49 320.896 1266.53 321.654C1262.86 322.573 1261.2 324.722 1261.2 324.722C1261.2 324.722 1270.48 321.686 1276.27 326.957Z" fill="#006062"/>
<path d="M1277 326.399C1277 326.399 1271.55 318.173 1275.27 309.499C1279.01 300.822 1290.12 299.782 1296.17 305.582C1291.04 305.043 1286.11 306.325 1286.11 306.325C1286.11 306.325 1290.73 306.635 1292.36 307.823C1288.88 307.657 1283.55 308.142 1281.3 310.063C1284.03 309.249 1286.44 309.465 1287.33 309.744C1284.7 310.236 1279.76 312.523 1278.55 315.419C1281.48 313.018 1284.19 312.971 1284.19 312.971C1284.19 312.971 1276.23 318.609 1277 326.399Z" fill="#006062"/>
<path d="M1274.1 326.656C1274.1 326.656 1278.68 317.916 1274.09 309.665C1269.5 301.415 1258.33 301.515 1252.91 307.904C1257.95 306.839 1262.98 307.616 1262.98 307.616C1262.98 307.616 1258.43 308.393 1256.93 309.744C1260.37 309.224 1265.73 309.158 1268.16 310.841C1265.36 310.314 1262.98 310.775 1262.13 311.141C1264.79 311.361 1269.94 313.134 1271.44 315.889C1268.28 313.802 1265.57 314.031 1265.57 314.031C1265.57 314.031 1274.07 318.828 1274.1 326.656Z" fill="#006062"/>
<path d="M993.266 515.309L991.771 515.406C991.746 514.986 988.826 472.826 978.723 445.006L980.143 444.495C990.317 472.516 993.241 514.88 993.266 515.309Z" fill="#006062"/>
<path d="M979.585 445.348C979.585 445.348 996.425 442.895 990.596 466.813C990.123 464.607 989.083 459.198 988.252 457.619C988.769 460.252 988.823 463.457 988.823 463.457C988.823 463.457 986.595 454.003 985.686 451.769C986.015 453.953 986.479 457.171 986.479 457.171C986.479 457.171 983.909 451.681 979.585 445.348Z" fill="#006062"/>
<path d="M978.657 445.689C978.657 445.689 984.119 440.305 991.295 441.872C998.468 443.443 1000.91 451.775 997.384 457.253C997.033 453.254 995.322 449.688 995.322 449.688C995.322 449.688 995.776 453.254 995.105 454.674C994.72 451.994 993.557 447.993 991.759 446.548C992.783 448.525 992.975 450.395 992.899 451.114C992.138 449.18 989.65 445.745 987.262 445.251C989.524 447.133 989.969 449.19 989.969 449.19C989.969 449.19 984.486 443.953 978.657 445.689Z" fill="#006062"/>
<path d="M979.174 446.529C979.174 446.529 979.362 438.861 985.611 434.991C991.85 431.131 999.399 435.433 1000.66 441.828C997.641 439.197 993.927 437.815 993.927 437.815C993.927 437.815 996.732 440.071 997.24 441.553C995.096 439.896 991.477 437.821 989.183 438.04C991.298 438.743 992.73 439.954 993.175 440.532C991.289 439.673 987.115 438.921 985.059 440.231C987.986 440.005 989.741 441.18 989.741 441.18C989.741 441.18 982.154 441.221 979.174 446.529Z" fill="#006062"/>
<path d="M980.099 445.753C980.099 445.753 963.96 451.155 979.964 469.878C979.393 467.695 977.88 462.398 977.905 460.618C978.638 463.201 980.033 466.084 980.033 466.084C980.033 466.084 977.751 456.639 977.554 454.235C978.247 456.335 979.287 459.419 979.287 459.419C979.287 459.419 979.105 453.355 980.099 445.753Z" fill="#006062"/>
<path d="M981.08 445.642C981.08 445.642 973.769 443.304 968.078 447.936C962.388 452.571 963.973 461.113 969.592 464.412C968.1 460.684 968.009 456.726 968.009 456.726C968.009 456.726 969.225 460.117 970.463 461.082C969.598 458.512 968.818 454.41 969.777 452.32C969.755 454.545 970.428 456.297 970.826 456.908C970.629 454.839 971.293 450.646 973.205 449.13C972.03 451.834 972.569 453.874 972.569 453.874C972.569 453.874 975.091 446.711 981.08 445.642Z" fill="#006062"/>
<path d="M981.001 446.62C981.001 446.62 977.36 439.864 970.049 439.234C962.735 438.61 957.941 445.849 959.696 452.129C961.212 448.412 963.898 445.508 963.898 445.508C963.898 445.508 962.409 448.782 962.629 450.337C963.794 447.886 966.082 444.405 968.222 443.568C966.662 445.15 965.925 446.876 965.787 447.595C967.091 445.972 970.478 443.427 972.901 443.658C970.184 444.777 969.156 446.627 969.156 446.627C969.156 446.627 975.943 443.236 981.001 446.62Z" fill="#006062"/>
<path d="M981.499 446.119C981.499 446.119 976.363 440.41 978.243 433.309C980.12 426.208 988.562 424.146 993.868 427.916C989.863 428.088 986.218 429.636 986.218 429.636C986.218 429.636 989.806 429.348 991.198 430.078C988.5 430.348 984.454 431.319 982.941 433.058C984.959 432.121 986.823 432.012 987.544 432.128C985.582 432.801 982.038 435.126 981.443 437.489C983.42 435.312 985.498 434.967 985.498 434.967C985.498 434.967 980.017 440.212 981.499 446.119Z" fill="#006062"/>
<path d="M979.293 446.646C979.293 446.646 981.829 439.398 977.347 433.573C972.873 427.747 964.299 429.091 960.849 434.625C964.612 433.243 968.573 433.259 968.573 433.259C968.573 433.259 965.151 434.374 964.155 435.587C966.743 434.798 970.864 434.137 972.92 435.152C970.707 435.067 968.924 435.69 968.313 436.07C970.388 435.935 974.549 436.718 976.009 438.665C973.355 437.417 971.296 437.899 971.296 437.899C971.296 437.899 978.382 440.623 979.293 446.646Z" fill="#006062"/>
<path d="M1000.55 509.318L999.054 509.543C998.994 509.127 992.918 433.816 977.015 397.375L978.375 396.739C995.165 440.141 1000.48 508.902 1000.55 509.318Z" fill="#006062"/>
<path d="M977.896 397.644C977.896 397.644 994.454 393.727 990.734 418.069C990.073 415.907 988.566 410.614 987.604 409.113C988.343 411.692 988.675 414.879 988.675 414.879C988.675 414.879 985.636 405.657 984.53 403.501C985.056 405.657 985.799 408.822 985.799 408.822C985.799 408.822 982.759 403.576 977.896 397.644Z" fill="#006062"/>
<path d="M977.003 398.068C977.003 398.068 981.976 392.224 989.262 393.161C996.544 394.095 999.706 402.186 996.666 407.958C995.967 404 993.953 400.591 993.953 400.591C993.953 400.591 994.717 404.11 994.169 405.582C993.548 402.947 992.047 399.052 990.126 397.78C991.317 399.66 991.678 401.502 991.662 402.229C990.731 400.368 987.955 397.162 985.539 396.88C987.958 398.557 988.582 400.572 988.582 400.572C988.582 400.572 982.656 395.827 977.003 398.068Z" fill="#006062"/>
<path d="M977.595 398.858C977.595 398.858 977.109 391.196 983 386.806C988.879 382.412 996.769 386.035 998.587 392.296C995.347 389.939 991.524 388.886 991.524 388.886C991.524 388.886 994.519 390.889 995.149 392.327C992.874 390.864 989.092 389.103 986.83 389.529C988.985 390.043 990.521 391.121 991.022 391.66C989.061 390.967 984.837 390.588 982.906 392.064C985.808 391.588 987.654 392.609 987.654 392.609C987.654 392.609 980.095 393.305 977.595 398.858Z" fill="#006062"/>
<path d="M978.444 398.002C978.444 398.002 962.842 404.793 980.415 422.047C979.651 419.925 977.68 414.777 977.557 412.997C978.507 415.51 980.149 418.258 980.149 418.258C980.149 418.258 977.056 409.055 976.649 406.673C977.523 408.71 978.817 411.687 978.817 411.687C978.817 411.687 978.109 405.664 978.444 398.002Z" fill="#006062"/>
<path d="M979.409 397.805C979.409 397.805 971.926 396.109 966.662 401.226C961.394 406.337 963.716 414.71 969.604 417.506C967.796 413.927 967.357 409.985 967.357 409.985C967.357 409.985 968.858 413.26 970.175 414.109C969.097 411.63 967.962 407.616 968.739 405.447C968.905 407.66 969.726 409.349 970.181 409.922C969.808 407.879 970.099 403.642 971.867 401.972C970.933 404.764 971.647 406.748 971.647 406.748C971.647 406.748 973.54 399.396 979.409 397.805Z" fill="#006062"/>
<path d="M979.412 398.789C979.412 398.789 975.201 392.371 967.865 392.39C960.523 392.393 956.383 400.033 958.68 406.127C959.855 402.298 962.281 399.165 962.281 399.165C962.281 399.165 961.09 402.561 961.45 404.091C962.393 401.549 964.358 397.883 966.423 396.855C965.007 398.569 964.421 400.355 964.349 401.079C965.505 399.353 968.661 396.513 971.092 396.545C968.488 397.895 967.617 399.826 967.617 399.826C967.617 399.826 974.082 395.852 979.412 398.789Z" fill="#006062"/>
<path d="M979.87 398.24C979.87 398.24 974.261 393.001 975.511 385.772C976.765 378.533 984.994 375.735 990.609 379.034C986.636 379.554 983.142 381.41 983.142 381.41C983.142 381.41 986.683 380.808 988.13 381.422C985.476 381.923 981.525 383.246 980.171 385.11C982.095 383.998 983.956 383.728 984.68 383.775C982.781 384.621 979.45 387.247 979.059 389.651C980.838 387.313 982.885 386.781 982.885 386.781C982.885 386.781 977.887 392.487 979.87 398.24Z" fill="#006062"/>
<path d="M977.72 398.961C977.72 398.961 979.613 391.519 974.649 386.11C969.68 380.692 961.25 382.779 958.304 388.595C961.927 386.881 965.872 386.561 965.872 386.561C965.872 386.561 962.563 387.968 961.676 389.266C964.189 388.25 968.226 387.235 970.375 388.068C968.153 388.178 966.439 388.949 965.863 389.378C967.912 389.065 972.136 389.482 973.759 391.293C971.002 390.29 968.99 390.945 968.99 390.945C968.99 390.945 976.279 393.042 977.72 398.961Z" fill="#006062"/>
</svg>
